# WaveFront *.obj file (generated by Autodesk ATF)

mtllib Table.mtl

g Solid1

v -250.000000 -200.000000 0.000000
v -250.000000 -200.000000 420.000000
v -250.000000 -175.000000 0.000000
v -250.000000 -175.000000 35.000000
v -250.000000 -175.000000 50.000000
v -250.000000 -175.000000 405.000000
v -250.000000 175.000000 0.000000
v -250.000000 175.000000 35.000000
v -250.000000 175.000000 50.000000
v -250.000000 175.000000 405.000000
v -250.000000 200.000000 0.000000
v -250.000000 200.000000 420.000000
v -225.000000 -200.000000 0.000000
v -225.000000 -200.000000 35.000000
v -225.000000 -200.000000 50.000000
v -225.000000 -200.000000 405.000000
v -225.000000 -175.000000 0.000000
v -225.000000 -175.000000 35.000000
v -225.000000 -175.000000 45.000000
v -225.000000 -175.000000 50.000000
v -225.000000 -175.000000 405.000000
v -225.000000 -175.000000 415.000000
v -225.000000 175.000000 0.000000
v -225.000000 175.000000 35.000000
v -225.000000 175.000000 45.000000
v -225.000000 175.000000 50.000000
v -225.000000 175.000000 405.000000
v -225.000000 175.000000 415.000000
v -225.000000 200.000000 0.000000
v -225.000000 200.000000 35.000000
v -225.000000 200.000000 50.000000
v -225.000000 200.000000 405.000000
v 60.000000 -110.000000 415.000000
v 60.000000 -110.000000 420.000000
v 60.000000 110.000000 415.000000
v 60.000000 110.000000 420.000000
v 210.000000 -110.000000 415.000000
v 210.000000 -110.000000 420.000000
v 210.000000 110.000000 415.000000
v 210.000000 110.000000 420.000000
v 225.000000 -200.000000 0.000000
v 225.000000 -200.000000 35.000000
v 225.000000 -200.000000 50.000000
v 225.000000 -200.000000 405.000000
v 225.000000 -175.000000 0.000000
v 225.000000 -175.000000 35.000000
v 225.000000 -175.000000 45.000000
v 225.000000 -175.000000 50.000000
v 225.000000 -175.000000 405.000000
v 225.000000 -175.000000 415.000000
v 225.000000 175.000000 0.000000
v 225.000000 175.000000 35.000000
v 225.000000 175.000000 45.000000
v 225.000000 175.000000 50.000000
v 225.000000 175.000000 405.000000
v 225.000000 175.000000 415.000000
v 225.000000 200.000000 0.000000
v 225.000000 200.000000 35.000000
v 225.000000 200.000000 50.000000
v 225.000000 200.000000 405.000000
v 250.000000 -200.000000 0.000000
v 250.000000 -200.000000 420.000000
v 250.000000 -175.000000 0.000000
v 250.000000 -175.000000 35.000000
v 250.000000 -175.000000 50.000000
v 250.000000 -175.000000 405.000000
v 250.000000 175.000000 0.000000
v 250.000000 175.000000 35.000000
v 250.000000 175.000000 50.000000
v 250.000000 175.000000 405.000000
v 250.000000 200.000000 0.000000
v 250.000000 200.000000 420.000000
vt -22.500000 -17.500000 0.000000
vt -22.500000 -20.000000 0.000000
vt 22.500000 -20.000000 0.000000
vt 22.500000 -17.500000 0.000000
vt -22.500000 17.500000 0.000000
vt -25.000000 17.500000 0.000000
vt -25.000000 -17.500000 0.000000
vt -22.500000 -17.500000 0.000000
vt 25.000000 17.500000 0.000000
vt 22.500000 17.500000 0.000000
vt 22.500000 -17.500000 0.000000
vt 25.000000 -17.500000 0.000000
vt 0.000000 0.000000 0.000000
vt 35.000000 0.000000 0.000000
vt 35.000000 1.000000 0.000000
vt 0.000000 1.000000 0.000000
vt 0.000000 0.000000 0.000000
vt 45.000000 0.000000 0.000000
vt 45.000000 1.000000 0.000000
vt 0.000000 1.000000 0.000000
vt 0.000000 0.000000 0.000000
vt 35.000000 0.000000 0.000000
vt 35.000000 1.000000 0.000000
vt 0.000000 1.000000 0.000000
vt 0.000000 0.000000 0.000000
vt 45.000000 0.000000 0.000000
vt 45.000000 1.000000 0.000000
vt 0.000000 1.000000 0.000000
vt 22.500000 17.500000 0.000000
vt 22.500000 20.000000 0.000000
vt -22.500000 20.000000 0.000000
vt -22.500000 17.500000 0.000000
vt 2.500000 40.500000 0.000000
vt 0.000000 40.500000 0.000000
vt 0.000000 5.000000 0.000000
vt 2.500000 5.000000 0.000000
vt 2.500000 40.500000 0.000000
vt 0.000000 40.500000 0.000000
vt 0.000000 5.000000 0.000000
vt 2.500000 5.000000 0.000000
vt 2.500000 40.500000 0.000000
vt 0.000000 40.500000 0.000000
vt 0.000000 5.000000 0.000000
vt 2.500000 5.000000 0.000000
vt 2.500000 40.500000 0.000000
vt 0.000000 40.500000 0.000000
vt 0.000000 5.000000 0.000000
vt 2.500000 5.000000 0.000000
vt 37.500000 40.500000 0.000000
vt 37.500000 5.000000 0.000000
vt 2.500000 5.000000 0.000000
vt 2.500000 40.500000 0.000000
vt 40.000000 0.000000 0.000000
vt 40.000000 42.000000 0.000000
vt 0.000000 42.000000 0.000000
vt 0.000000 0.000000 0.000000
vt 2.500000 0.000000 0.000000
vt 2.500000 3.500000 0.000000
vt 37.500000 3.500000 0.000000
vt 37.500000 0.000000 0.000000
vt 47.500000 40.500000 0.000000
vt 47.500000 5.000000 0.000000
vt 2.500000 5.000000 0.000000
vt 2.500000 40.500000 0.000000
vt 50.000000 0.000000 0.000000
vt 50.000000 42.000000 0.000000
vt 0.000000 42.000000 0.000000
vt 0.000000 0.000000 0.000000
vt 2.500000 0.000000 0.000000
vt 2.500000 3.500000 0.000000
vt 47.500000 3.500000 0.000000
vt 47.500000 0.000000 0.000000
vt 2.500000 40.500000 0.000000
vt 0.000000 40.500000 0.000000
vt 0.000000 5.000000 0.000000
vt 2.500000 5.000000 0.000000
vt 0.000000 0.000000 0.000000
vt 22.000000 0.000000 0.000000
vt 22.000000 0.500000 0.000000
vt 0.000000 0.500000 0.000000
vt 0.000000 0.000000 0.000000
vt 15.000000 0.000000 0.000000
vt 15.000000 0.500000 0.000000
vt 0.000000 0.500000 0.000000
vt 0.000000 0.000000 0.000000
vt 22.000000 0.000000 0.000000
vt 22.000000 0.500000 0.000000
vt 0.000000 0.500000 0.000000
vt 0.000000 0.000000 0.000000
vt 15.000000 0.000000 0.000000
vt 15.000000 0.500000 0.000000
vt 0.000000 0.500000 0.000000
vt -22.500000 -17.500000 0.000000
vt 22.500000 -17.500000 0.000000
vt 22.500000 17.500000 0.000000
vt -22.500000 17.500000 0.000000
vt -21.000000 11.000000 0.000000
vt -6.000000 11.000000 0.000000
vt -6.000000 -11.000000 0.000000
vt -21.000000 -11.000000 0.000000
vt 2.500000 40.500000 0.000000
vt 0.000000 40.500000 0.000000
vt 0.000000 5.000000 0.000000
vt 2.500000 5.000000 0.000000
vt 22.500000 -17.500000 0.000000
vt 25.000000 -17.500000 0.000000
vt 25.000000 17.500000 0.000000
vt 22.500000 17.500000 0.000000
vt -22.500000 -17.500000 0.000000
vt -22.500000 -20.000000 0.000000
vt 22.500000 -20.000000 0.000000
vt 22.500000 -17.500000 0.000000
vt -22.500000 20.000000 0.000000
vt -22.500000 17.500000 0.000000
vt 22.500000 17.500000 0.000000
vt 22.500000 20.000000 0.000000
vt 0.000000 0.000000 0.000000
vt 35.000000 0.000000 0.000000
vt 35.000000 1.000000 0.000000
vt 0.000000 1.000000 0.000000
vt 0.000000 0.000000 0.000000
vt 45.000000 0.000000 0.000000
vt 45.000000 1.000000 0.000000
vt 0.000000 1.000000 0.000000
vt 0.000000 0.000000 0.000000
vt 35.000000 0.000000 0.000000
vt 35.000000 1.000000 0.000000
vt 0.000000 1.000000 0.000000
vt 0.000000 0.000000 0.000000
vt 45.000000 0.000000 0.000000
vt 45.000000 1.000000 0.000000
vt 0.000000 1.000000 0.000000
vt -22.500000 17.500000 0.000000
vt -25.000000 17.500000 0.000000
vt -25.000000 -17.500000 0.000000
vt -22.500000 -17.500000 0.000000
vt 2.500000 3.500000 0.000000
vt 0.000000 3.500000 0.000000
vt 0.000000 0.000000 0.000000
vt 2.500000 0.000000 0.000000
vt 2.500000 3.500000 0.000000
vt 0.000000 3.500000 0.000000
vt 0.000000 0.000000 0.000000
vt 2.500000 0.000000 0.000000
vt 2.500000 3.500000 0.000000
vt 0.000000 3.500000 0.000000
vt 0.000000 0.000000 0.000000
vt 2.500000 0.000000 0.000000
vt -37.500000 42.000000 0.000000
vt -37.500000 0.000000 0.000000
vt -35.000000 0.000000 0.000000
vt -35.000000 3.500000 0.000000
vt 0.000000 3.500000 0.000000
vt 0.000000 0.000000 0.000000
vt 2.500000 0.000000 0.000000
vt 2.500000 42.000000 0.000000
vt -35.000000 40.500000 0.000000
vt 0.000000 40.500000 0.000000
vt 0.000000 5.000000 0.000000
vt -35.000000 5.000000 0.000000
vt 2.500000 3.500000 0.000000
vt 0.000000 3.500000 0.000000
vt 0.000000 0.000000 0.000000
vt 2.500000 0.000000 0.000000
vt -25.000000 -17.500000 0.000000
vt -22.500000 -17.500000 0.000000
vt -22.500000 -20.000000 0.000000
vt 22.500000 -20.000000 0.000000
vt 22.500000 -17.500000 0.000000
vt 25.000000 -17.500000 0.000000
vt 25.000000 17.500000 0.000000
vt 22.500000 17.500000 0.000000
vt 22.500000 20.000000 0.000000
vt -22.500000 20.000000 0.000000
vt -22.500000 17.500000 0.000000
vt -25.000000 17.500000 0.000000
vt 22.500000 -17.500000 0.000000
vt 22.500000 17.500000 0.000000
vt -22.500000 17.500000 0.000000
vt -22.500000 -17.500000 0.000000
vt 2.500000 3.500000 0.000000
vt 0.000000 3.500000 0.000000
vt 0.000000 0.000000 0.000000
vt 2.500000 0.000000 0.000000
vt -17.750000 -7.750000 0.000000
vt -2.750000 -7.750000 0.000000
vt -2.750000 -29.750000 0.000000
vt -17.750000 -29.750000 0.000000
vt 1.250000 -38.750000 0.000000
vt 1.250000 1.250000 0.000000
vt -48.750000 1.250000 0.000000
vt -48.750000 -38.750000 0.000000
vt -1.250000 1.250000 0.000000
vt -1.250000 -1.250000 0.000000
vt 1.250000 -1.250000 0.000000
vt 1.250000 1.250000 0.000000
vt 0.000000 40.500000 0.000000
vt 0.000000 5.000000 0.000000
vt -45.000000 5.000000 0.000000
vt -45.000000 40.500000 0.000000
vt 2.500000 0.000000 0.000000
vt 2.500000 42.000000 0.000000
vt -47.500000 42.000000 0.000000
vt -47.500000 0.000000 0.000000
vt -45.000000 0.000000 0.000000
vt -45.000000 3.500000 0.000000
vt 0.000000 3.500000 0.000000
vt 0.000000 0.000000 0.000000
vt 1.250000 -1.250000 0.000000
vt 1.250000 1.250000 0.000000
vt -1.250000 1.250000 0.000000
vt -1.250000 -1.250000 0.000000
vt 2.500000 3.500000 0.000000
vt 0.000000 3.500000 0.000000
vt 0.000000 0.000000 0.000000
vt 2.500000 0.000000 0.000000
vt 2.500000 40.500000 0.000000
vt 0.000000 40.500000 0.000000
vt 0.000000 5.000000 0.000000
vt 2.500000 5.000000 0.000000
vt 2.500000 40.500000 0.000000
vt 0.000000 40.500000 0.000000
vt 0.000000 5.000000 0.000000
vt 2.500000 5.000000 0.000000
vt -1.250000 -1.250000 0.000000
vt 1.250000 -1.250000 0.000000
vt 1.250000 1.250000 0.000000
vt -1.250000 1.250000 0.000000
vt 2.500000 3.500000 0.000000
vt 0.000000 3.500000 0.000000
vt 0.000000 0.000000 0.000000
vt 2.500000 0.000000 0.000000
vt 2.500000 3.500000 0.000000
vt 0.000000 3.500000 0.000000
vt 0.000000 0.000000 0.000000
vt 2.500000 0.000000 0.000000
vt 1.250000 1.250000 0.000000
vt -1.250000 1.250000 0.000000
vt -1.250000 -1.250000 0.000000
vt 1.250000 -1.250000 0.000000
vn 0.000000 0.000000 -0.100000
vn 0.000000 0.000000 -0.100000
vn 0.000000 0.000000 -0.100000
vn 0.000000 0.000000 -0.100000
vn 0.000000 0.000000 -0.100000
vn 0.000000 0.000000 -0.100000
vn 0.000000 0.000000 -0.100000
vn 0.000000 0.000000 -0.100000
vn 0.000000 0.000000 -0.100000
vn 0.000000 0.000000 -0.100000
vn 0.000000 0.000000 -0.100000
vn 0.000000 0.000000 -0.100000
vn -0.100000 0.000000 0.000000
vn -0.100000 0.000000 0.000000
vn -0.100000 0.000000 0.000000
vn -0.100000 0.000000 0.000000
vn 0.000000 0.100000 0.000000
vn 0.000000 0.100000 0.000000
vn 0.000000 0.100000 0.000000
vn 0.000000 0.100000 0.000000
vn 0.100000 0.000000 0.000000
vn 0.100000 0.000000 0.000000
vn 0.100000 0.000000 0.000000
vn 0.100000 0.000000 0.000000
vn 0.000000 -0.100000 0.000000
vn 0.000000 -0.100000 0.000000
vn 0.000000 -0.100000 0.000000
vn 0.000000 -0.100000 0.000000
vn 0.000000 0.000000 -0.100000
vn 0.000000 0.000000 -0.100000
vn 0.000000 0.000000 -0.100000
vn 0.000000 0.000000 -0.100000
vn 0.100000 0.000000 0.000000
vn 0.100000 0.000000 0.000000
vn 0.100000 0.000000 0.000000
vn 0.100000 0.000000 0.000000
vn 0.000000 -0.100000 0.000000
vn 0.000000 -0.100000 0.000000
vn 0.000000 -0.100000 0.000000
vn 0.000000 -0.100000 0.000000
vn 0.000000 -0.100000 0.000000
vn 0.000000 -0.100000 0.000000
vn 0.000000 -0.100000 0.000000
vn 0.000000 -0.100000 0.000000
vn 0.000000 0.100000 0.000000
vn 0.000000 0.100000 0.000000
vn 0.000000 0.100000 0.000000
vn 0.000000 0.100000 0.000000
vn 0.100000 0.000000 0.000000
vn 0.100000 0.000000 0.000000
vn 0.100000 0.000000 0.000000
vn 0.100000 0.000000 0.000000
vn 0.100000 0.000000 0.000000
vn 0.100000 0.000000 0.000000
vn 0.100000 0.000000 0.000000
vn 0.100000 0.000000 0.000000
vn 0.100000 0.000000 0.000000
vn 0.100000 0.000000 0.000000
vn 0.100000 0.000000 0.000000
vn 0.100000 0.000000 0.000000
vn 0.000000 -0.100000 0.000000
vn 0.000000 -0.100000 0.000000
vn 0.000000 -0.100000 0.000000
vn 0.000000 -0.100000 0.000000
vn 0.000000 -0.100000 0.000000
vn 0.000000 -0.100000 0.000000
vn 0.000000 -0.100000 0.000000
vn 0.000000 -0.100000 0.000000
vn 0.000000 -0.100000 0.000000
vn 0.000000 -0.100000 0.000000
vn 0.000000 -0.100000 0.000000
vn 0.000000 -0.100000 0.000000
vn 0.100000 0.000000 0.000000
vn 0.100000 0.000000 0.000000
vn 0.100000 0.000000 0.000000
vn 0.100000 0.000000 0.000000
vn -0.100000 0.000000 0.000000
vn -0.100000 0.000000 0.000000
vn -0.100000 0.000000 0.000000
vn -0.100000 0.000000 0.000000
vn 0.000000 0.100000 0.000000
vn 0.000000 0.100000 0.000000
vn 0.000000 0.100000 0.000000
vn 0.000000 0.100000 0.000000
vn 0.100000 0.000000 0.000000
vn 0.100000 0.000000 0.000000
vn 0.100000 0.000000 0.000000
vn 0.100000 0.000000 0.000000
vn 0.000000 -0.100000 0.000000
vn 0.000000 -0.100000 0.000000
vn 0.000000 -0.100000 0.000000
vn 0.000000 -0.100000 0.000000
vn 0.000000 0.000000 -0.100000
vn 0.000000 0.000000 -0.100000
vn 0.000000 0.000000 -0.100000
vn 0.000000 0.000000 -0.100000
vn 0.000000 0.000000 -0.100000
vn 0.000000 0.000000 -0.100000
vn 0.000000 0.000000 -0.100000
vn 0.000000 0.000000 -0.100000
vn -0.100000 0.000000 0.000000
vn -0.100000 0.000000 0.000000
vn -0.100000 0.000000 0.000000
vn -0.100000 0.000000 0.000000
vn 0.000000 0.000000 -0.100000
vn 0.000000 0.000000 -0.100000
vn 0.000000 0.000000 -0.100000
vn 0.000000 0.000000 -0.100000
vn 0.000000 0.000000 -0.100000
vn 0.000000 0.000000 -0.100000
vn 0.000000 0.000000 -0.100000
vn 0.000000 0.000000 -0.100000
vn 0.000000 0.000000 -0.100000
vn 0.000000 0.000000 -0.100000
vn 0.000000 0.000000 -0.100000
vn 0.000000 0.000000 -0.100000
vn 0.100000 0.000000 0.000000
vn 0.100000 0.000000 0.000000
vn 0.100000 0.000000 0.000000
vn 0.100000 0.000000 0.000000
vn 0.000000 -0.100000 0.000000
vn 0.000000 -0.100000 0.000000
vn 0.000000 -0.100000 0.000000
vn 0.000000 -0.100000 0.000000
vn -0.100000 0.000000 0.000000
vn -0.100000 0.000000 0.000000
vn -0.100000 0.000000 0.000000
vn -0.100000 0.000000 0.000000
vn 0.000000 0.100000 0.000000
vn 0.000000 0.100000 0.000000
vn 0.000000 0.100000 0.000000
vn 0.000000 0.100000 0.000000
vn 0.000000 0.000000 -0.100000
vn 0.000000 0.000000 -0.100000
vn 0.000000 0.000000 -0.100000
vn 0.000000 0.000000 -0.100000
vn 0.000000 -0.100000 0.000000
vn 0.000000 -0.100000 0.000000
vn 0.000000 -0.100000 0.000000
vn 0.000000 -0.100000 0.000000
vn -0.100000 0.000000 0.000000
vn -0.100000 0.000000 0.000000
vn -0.100000 0.000000 0.000000
vn -0.100000 0.000000 0.000000
vn 0.100000 0.000000 0.000000
vn 0.100000 0.000000 0.000000
vn 0.100000 0.000000 0.000000
vn 0.100000 0.000000 0.000000
vn -0.100000 0.000000 0.000000
vn -0.100000 0.000000 0.000000
vn -0.100000 0.000000 0.000000
vn -0.100000 0.000000 0.000000
vn -0.100000 0.000000 0.000000
vn -0.100000 0.000000 0.000000
vn -0.100000 0.000000 0.000000
vn -0.100000 0.000000 0.000000
vn -0.100000 0.000000 0.000000
vn -0.100000 0.000000 0.000000
vn -0.100000 0.000000 0.000000
vn -0.100000 0.000000 0.000000
vn 0.000000 -0.100000 0.000000
vn 0.000000 -0.100000 0.000000
vn 0.000000 -0.100000 0.000000
vn 0.000000 -0.100000 0.000000
vn 0.000000 0.000000 0.100000
vn 0.000000 0.000000 0.100000
vn 0.000000 0.000000 0.100000
vn 0.000000 0.000000 0.100000
vn 0.000000 0.000000 0.100000
vn 0.000000 0.000000 0.100000
vn 0.000000 0.000000 0.100000
vn 0.000000 0.000000 0.100000
vn 0.000000 0.000000 0.100000
vn 0.000000 0.000000 0.100000
vn 0.000000 0.000000 0.100000
vn 0.000000 0.000000 0.100000
vn 0.000000 0.000000 -0.100000
vn 0.000000 0.000000 -0.100000
vn 0.000000 0.000000 -0.100000
vn 0.000000 0.000000 -0.100000
vn -0.100000 0.000000 0.000000
vn -0.100000 0.000000 0.000000
vn -0.100000 0.000000 0.000000
vn -0.100000 0.000000 0.000000
vn 0.000000 0.000000 0.100000
vn 0.000000 0.000000 0.100000
vn 0.000000 0.000000 0.100000
vn 0.000000 0.000000 0.100000
vn 0.000000 0.000000 0.100000
vn 0.000000 0.000000 0.100000
vn 0.000000 0.000000 0.100000
vn 0.000000 0.000000 0.100000
vn 0.000000 0.000000 -0.100000
vn 0.000000 0.000000 -0.100000
vn 0.000000 0.000000 -0.100000
vn 0.000000 0.000000 -0.100000
vn 0.000000 0.100000 0.000000
vn 0.000000 0.100000 0.000000
vn 0.000000 0.100000 0.000000
vn 0.000000 0.100000 0.000000
vn 0.000000 0.100000 0.000000
vn 0.000000 0.100000 0.000000
vn 0.000000 0.100000 0.000000
vn 0.000000 0.100000 0.000000
vn 0.000000 0.100000 0.000000
vn 0.000000 0.100000 0.000000
vn 0.000000 0.100000 0.000000
vn 0.000000 0.100000 0.000000
vn 0.000000 0.000000 -0.100000
vn 0.000000 0.000000 -0.100000
vn 0.000000 0.000000 -0.100000
vn 0.000000 0.000000 -0.100000
vn 0.000000 0.100000 0.000000
vn 0.000000 0.100000 0.000000
vn 0.000000 0.100000 0.000000
vn 0.000000 0.100000 0.000000
vn -0.100000 0.000000 0.000000
vn -0.100000 0.000000 0.000000
vn -0.100000 0.000000 0.000000
vn -0.100000 0.000000 0.000000
vn 0.000000 0.100000 0.000000
vn 0.000000 0.100000 0.000000
vn 0.000000 0.100000 0.000000
vn 0.000000 0.100000 0.000000
vn 0.000000 0.000000 -0.100000
vn 0.000000 0.000000 -0.100000
vn 0.000000 0.000000 -0.100000
vn 0.000000 0.000000 -0.100000
vn 0.000000 0.100000 0.000000
vn 0.000000 0.100000 0.000000
vn 0.000000 0.100000 0.000000
vn 0.000000 0.100000 0.000000
vn 0.100000 0.000000 0.000000
vn 0.100000 0.000000 0.000000
vn 0.100000 0.000000 0.000000
vn 0.100000 0.000000 0.000000
vn 0.000000 0.000000 -0.100000
vn 0.000000 0.000000 -0.100000
vn 0.000000 0.000000 -0.100000
vn 0.000000 0.000000 -0.100000
usemtl 191,191,191
f 44/2/2 16/3/3 49/1/1
f 49/1/1 16/3/3 21/4/4
f 55/5/5 70/6/6 49/8/8
f 49/8/8 70/6/6 66/7/7
f 10/9/9 27/10/10 6/12/12
f 6/12/12 27/10/10 21/11/11
f 50/13/13 56/14/14 49/16/16
f 49/16/16 56/14/14 55/15/15
f 22/17/17 50/18/18 21/20/20
f 21/20/20 50/18/18 49/19/19
f 28/21/21 22/22/22 27/24/24
f 27/24/24 22/22/22 21/23/23
f 56/25/25 28/26/26 55/28/28
f 55/28/28 28/26/26 27/27/27
f 32/30/30 60/31/31 27/29/29
f 27/29/29 60/31/31 55/32/32
f 32/33/33 27/34/34 31/36/36
f 31/36/36 27/34/34 26/35/35
f 27/37/37 10/38/38 26/40/40
f 26/40/40 10/38/38 9/39/39
f 70/41/41 55/42/42 69/44/44
f 69/44/44 55/42/42 54/43/43
f 6/45/45 21/46/46 5/48/48
f 5/48/48 21/46/46 20/47/47
f 69/50/50 72/54/54 70/49/49
f 70/49/49 72/54/54 62/55/55
f 70/49/49 62/55/55 66/52/52
f 66/52/52 62/55/55 65/51/51
f 65/51/51 62/55/55 61/56/56
f 65/51/51 61/56/56 64/58/58
f 64/58/58 61/56/56 63/57/57
f 65/51/51 68/59/59 69/50/50
f 69/50/50 68/59/59 71/53/53
f 69/50/50 71/53/53 72/54/54
f 64/58/58 68/59/59 65/51/51
f 68/59/59 67/60/60 71/53/53
f 43/62/62 62/66/66 44/61/61
f 44/61/61 62/66/66 2/67/67
f 44/61/61 2/67/67 16/64/64
f 16/64/64 2/67/67 15/63/63
f 15/63/63 2/67/67 1/68/68
f 15/63/63 1/68/68 14/70/70
f 14/70/70 1/68/68 13/69/69
f 15/63/63 42/71/71 43/62/62
f 43/62/62 42/71/71 61/65/65
f 43/62/62 61/65/65 62/66/66
f 14/70/70 42/71/71 15/63/63
f 42/71/71 41/72/72 61/65/65
f 21/73/73 16/74/74 20/76/76
f 20/76/76 16/74/74 15/75/75
f 38/77/77 40/78/78 37/80/80
f 37/80/80 40/78/78 39/79/79
f 34/81/81 38/82/82 33/84/84
f 33/84/84 38/82/82 37/83/83
f 36/85/85 34/86/86 35/88/88
f 35/88/88 34/86/86 33/87/87
f 40/89/89 36/90/90 39/92/92
f 39/92/92 36/90/90 35/91/91
f 22/94/94 33/99/99 50/93/93
f 50/93/93 33/99/99 37/100/100
f 50/93/93 37/100/100 39/97/97
f 33/99/99 22/94/94 35/98/98
f 35/98/98 22/94/94 28/95/95
f 35/98/98 28/95/95 56/96/96
f 35/98/98 56/96/96 39/97/97
f 39/97/97 56/96/96 50/93/93
f 55/101/101 60/102/102 54/104/104
f 54/104/104 60/102/102 59/103/103
f 18/105/105 4/106/106 24/108/108
f 24/108/108 4/106/106 8/107/107
f 42/110/110 14/111/111 46/109/109
f 46/109/109 14/111/111 18/112/112
f 52/114/114 24/115/115 58/113/113
f 58/113/113 24/115/115 30/116/116
f 25/117/117 19/118/118 24/120/120
f 24/120/120 19/118/118 18/119/119
f 53/121/121 25/122/122 52/124/124
f 52/124/124 25/122/122 24/123/123
f 47/125/125 53/126/126 46/128/128
f 46/128/128 53/126/126 52/127/127
f 19/129/129 47/130/130 18/132/132
f 18/132/132 47/130/130 46/131/131
f 52/133/133 68/134/134 46/136/136
f 46/136/136 68/134/134 64/135/135
f 68/137/137 52/138/138 67/140/140
f 67/140/140 52/138/138 51/139/139
f 42/141/141 46/142/142 41/144/144
f 41/144/144 46/142/142 45/143/143
f 30/145/145 24/146/146 29/148/148
f 29/148/148 24/146/146 23/147/147
f 11/150/150 9/160/160 12/149/149
f 12/149/149 9/160/160 10/157/157
f 12/149/149 10/157/157 6/158/158
f 7/151/151 8/152/152 11/150/150
f 11/150/150 8/152/152 9/160/160
f 8/152/152 4/153/153 9/160/160
f 9/160/160 4/153/153 5/159/159
f 5/159/159 4/153/153 1/155/155
f 5/159/159 1/155/155 2/156/156
f 4/153/153 3/154/154 1/155/155
f 5/159/159 2/156/156 6/158/158
f 6/158/158 2/156/156 12/149/149
f 24/161/161 8/162/162 23/164/164
f 23/164/164 8/162/162 7/163/163
f 5/165/165 20/166/166 9/176/176
f 9/176/176 20/166/166 26/175/175
f 26/175/175 20/166/166 48/169/169
f 26/175/175 48/169/169 54/172/172
f 54/172/172 48/169/169 65/170/170
f 54/172/172 65/170/170 69/171/171
f 15/167/167 43/168/168 20/166/166
f 20/166/166 43/168/168 48/169/169
f 59/173/173 31/174/174 54/172/172
f 54/172/172 31/174/174 26/175/175
f 25/178/178 53/179/179 19/177/177
f 19/177/177 53/179/179 47/180/180
f 52/181/181 58/182/182 51/184/184
f 51/184/184 58/182/182 57/183/183
f 40/186/186 72/190/190 36/185/185
f 36/185/185 72/190/190 12/191/191
f 36/185/185 12/191/191 2/192/192
f 72/190/190 40/186/186 62/189/189
f 62/189/189 40/186/186 38/187/187
f 62/189/189 38/187/187 34/188/188
f 62/189/189 34/188/188 2/192/192
f 2/192/192 34/188/188 36/185/185
f 67/194/194 51/195/195 71/193/193
f 71/193/193 51/195/195 57/196/196
f 31/198/198 12/202/202 32/197/197
f 32/197/197 12/202/202 72/203/203
f 32/197/197 72/203/203 60/200/200
f 60/200/200 72/203/203 59/199/199
f 59/199/199 72/203/203 71/204/204
f 59/199/199 71/204/204 58/206/206
f 58/206/206 71/204/204 57/205/205
f 59/199/199 30/207/207 31/198/198
f 31/198/198 30/207/207 11/201/201
f 31/198/198 11/201/201 12/202/202
f 58/206/206 30/207/207 59/199/199
f 30/207/207 29/208/208 11/201/201
f 11/210/210 29/211/211 7/209/209
f 7/209/209 29/211/211 23/212/212
f 46/213/213 64/214/214 45/216/216
f 45/216/216 64/214/214 63/215/215
f 44/217/217 49/218/218 43/220/220
f 43/220/220 49/218/218 48/219/219
f 49/221/221 66/222/222 48/224/224
f 48/224/224 66/222/222 65/223/223
f 61/225/225 41/226/226 63/228/228
f 63/228/228 41/226/226 45/227/227
f 4/229/229 18/230/230 3/232/232
f 3/232/232 18/230/230 17/231/231
f 18/233/233 14/234/234 17/236/236
f 17/236/236 14/234/234 13/235/235
f 3/237/237 17/238/238 1/240/240
f 1/240/240 17/238/238 13/239/239
# 72 vertices
# 240 texture params
# 240 normals
# 156 facets

# 1 groups
