####
#
# OBJ File Generated by Meshlab
#
####
# Object Sign.obj
#
# Vertices: 132
# Faces: 260
#
####
mtllib ./Sign.obj.mtl

vn 0.577350 -0.577350 -0.577350
v 0.050000 -0.050000 0.000000
vn 0.577348 -0.577347 0.577356
v 0.050000 -0.050000 0.005000
vn 0.577350 -0.577350 -0.577350
v 0.002500 -0.050000 0.057916
vn 0.577350 -0.577350 0.577350
v 0.002500 -0.050000 0.062916
vn -0.577350 -0.577350 -0.577350
v -0.002500 -0.050000 0.057916
vn -0.577350 -0.577350 0.577350
v -0.002500 -0.050000 0.062916
vn -0.577350 -0.577350 -0.577350
v -0.050000 -0.050000 0.000000
vn -0.577347 -0.577348 0.577356
v -0.050000 -0.050000 0.005000
vn 0.054022 -0.686416 0.725200
v 0.012500 -0.017500 0.005000
vn 0.077320 -0.988584 0.129322
v 0.012500 -0.017500 0.064000
vn 0.301511 -0.904534 -0.301511
v 0.002500 -0.017500 0.057916
vn 0.301511 -0.904534 0.301511
v 0.002500 -0.017500 0.062916
vn -0.301511 -0.904534 -0.301511
v -0.002500 -0.017500 0.057916
vn -0.301511 -0.904534 0.301511
v -0.002500 -0.017500 0.062916
vn -0.054022 -0.686415 0.725200
v -0.012500 -0.017500 0.005000
vn -0.077320 -0.988584 0.129322
v -0.012500 -0.017500 0.064000
vn 0.067825 -0.867079 0.493532
v 0.012500 -0.017366 0.064500
vn -0.067825 -0.867079 0.493531
v -0.012500 -0.017366 0.064500
vn 0.206455 -0.635402 0.744071
v 0.014045 -0.017255 0.005000
vn 0.306440 -0.943126 0.128873
v 0.014045 -0.017255 0.064000
vn -0.206454 -0.635402 0.744071
v -0.014045 -0.017255 0.005000
vn -0.306440 -0.943126 0.128873
v -0.014045 -0.017255 0.064000
vn 0.269525 -0.829513 0.489146
v 0.014004 -0.017128 0.064500
vn -0.269525 -0.829513 0.489146
v -0.014004 -0.017128 0.064500
vn 0.040720 -0.508980 0.859815
v 0.012500 -0.017000 0.064866
vn -0.040720 -0.508980 0.859815
v -0.012500 -0.017000 0.064866
vn 0.156297 -0.492198 0.856336
v 0.013891 -0.016780 0.064866
vn -0.156298 -0.492199 0.856336
v -0.013891 -0.016780 0.064866
vn 0.392699 -0.540505 0.744071
v 0.015439 -0.016545 0.005000
vn 0.582883 -0.802271 0.128875
v 0.015439 -0.016545 0.064000
vn -0.392699 -0.540505 0.744071
v -0.015439 -0.016545 0.005000
vn -0.582883 -0.802271 0.128875
v -0.015439 -0.016545 0.064000
vn 0.011950 -0.136882 0.990515
v 0.012500 -0.016500 0.065000
vn -0.011950 -0.136882 0.990515
v -0.012500 -0.016500 0.065000
vn 0.512667 -0.705625 0.489147
v 0.015360 -0.016437 0.064500
vn -0.512667 -0.705625 0.489148
v -0.015360 -0.016437 0.064500
vn 0.057228 -0.133469 0.989399
v 0.014031 -0.016196 0.065000
vn -0.057228 -0.133469 0.989399
v -0.014031 -0.016196 0.065000
vn 0.300999 -0.416908 0.857664
v 0.015145 -0.016141 0.064866
vn -0.300999 -0.416908 0.857664
v -0.015145 -0.016141 0.064866
vn 0.540505 -0.392699 0.744071
v 0.016545 -0.015439 0.005000
vn 0.802271 -0.582883 0.128875
v 0.016545 -0.015439 0.064000
vn -0.540505 -0.392699 0.744071
v -0.016545 -0.015439 0.005000
vn -0.802271 -0.582883 0.128875
v -0.016545 -0.015439 0.064000
vn 0.705625 -0.512667 0.489148
v 0.016437 -0.015360 0.064500
vn -0.705625 -0.512667 0.489147
v -0.016437 -0.015360 0.064500
vn 0.104125 -0.104125 0.989099
v 0.015328 -0.015328 0.065000
vn -0.104125 -0.104125 0.989099
v -0.015328 -0.015328 0.065000
vn 0.416908 -0.300999 0.857664
v 0.016141 -0.015145 0.064866
vn -0.416908 -0.300999 0.857664
v -0.016141 -0.015145 0.064866
vn 0.635402 -0.206454 0.744071
v 0.017255 -0.014045 0.005000
vn 0.943126 -0.306440 0.128873
v 0.017255 -0.014045 0.064000
vn -0.635402 -0.206455 0.744071
v -0.017255 -0.014045 0.005000
vn -0.943126 -0.306440 0.128873
v -0.017255 -0.014045 0.064000
vn 0.133469 -0.057228 0.989399
v 0.016196 -0.014031 0.065000
vn -0.133469 -0.057228 0.989399
v -0.016196 -0.014031 0.065000
vn 0.829513 -0.269525 0.489146
v 0.017128 -0.014004 0.064500
vn -0.829513 -0.269525 0.489146
v -0.017128 -0.014004 0.064500
vn 0.492199 -0.156298 0.856336
v 0.016780 -0.013891 0.064866
vn -0.492198 -0.156297 0.856336
v -0.016780 -0.013891 0.064866
vn 0.686415 -0.054022 0.725200
v 0.017500 -0.012500 0.005000
vn 0.988584 -0.077320 0.129322
v 0.017500 -0.012500 0.064000
vn 0.867079 -0.067825 0.493531
v 0.017366 -0.012500 0.064500
vn 0.508980 -0.040720 0.859815
v 0.017000 -0.012500 0.064866
vn 0.136882 -0.011950 0.990515
v 0.016500 -0.012500 0.065000
vn -0.136882 -0.011950 0.990515
v -0.016500 -0.012500 0.065000
vn -0.508980 -0.040720 0.859815
v -0.017000 -0.012500 0.064866
vn -0.867079 -0.067825 0.493531
v -0.017366 -0.012500 0.064500
vn -0.686415 -0.054022 0.725200
v -0.017500 -0.012500 0.005000
vn -0.988584 -0.077320 0.129322
v -0.017500 -0.012500 0.064000
vn 0.686415 0.054022 0.725200
v 0.017500 0.012500 0.005000
vn 0.988584 0.077320 0.129322
v 0.017500 0.012500 0.064000
vn 0.867079 0.067825 0.493532
v 0.017366 0.012500 0.064500
vn 0.508980 0.040720 0.859815
v 0.017000 0.012500 0.064866
vn 0.136882 0.011950 0.990515
v 0.016500 0.012500 0.065000
vn -0.136882 0.011950 0.990515
v -0.016500 0.012500 0.065000
vn -0.508980 0.040720 0.859815
v -0.017000 0.012500 0.064866
vn -0.867079 0.067825 0.493531
v -0.017366 0.012500 0.064500
vn -0.686415 0.054022 0.725200
v -0.017500 0.012500 0.005000
vn -0.988584 0.077320 0.129322
v -0.017500 0.012500 0.064000
vn 0.492198 0.156297 0.856336
v 0.016780 0.013891 0.064866
vn -0.492199 0.156298 0.856336
v -0.016780 0.013891 0.064866
vn 0.829513 0.269525 0.489146
v 0.017128 0.014004 0.064500
vn -0.829513 0.269525 0.489146
v -0.017128 0.014004 0.064500
vn 0.133469 0.057228 0.989399
v 0.016196 0.014031 0.065000
vn -0.133469 0.057228 0.989399
v -0.016196 0.014031 0.065000
vn 0.635402 0.206455 0.744071
v 0.017255 0.014045 0.005000
vn 0.943126 0.306440 0.128873
v 0.017255 0.014045 0.064000
vn -0.635402 0.206454 0.744071
v -0.017255 0.014045 0.005000
vn -0.943126 0.306440 0.128873
v -0.017255 0.014045 0.064000
vn 0.416908 0.300999 0.857664
v 0.016141 0.015145 0.064866
vn -0.416908 0.300999 0.857664
v -0.016141 0.015145 0.064866
vn 0.104125 0.104125 0.989099
v 0.015328 0.015328 0.065000
vn -0.104125 0.104125 0.989099
v -0.015328 0.015328 0.065000
vn 0.705625 0.512667 0.489147
v 0.016437 0.015360 0.064500
vn -0.705625 0.512667 0.489148
v -0.016437 0.015360 0.064500
vn 0.540505 0.392699 0.744071
v 0.016545 0.015439 0.005000
vn 0.802271 0.582883 0.128875
v 0.016545 0.015439 0.064000
vn -0.540505 0.392699 0.744071
v -0.016545 0.015439 0.005000
vn -0.802271 0.582883 0.128875
v -0.016545 0.015439 0.064000
vn 0.300999 0.416908 0.857664
v 0.015145 0.016141 0.064866
vn -0.300999 0.416908 0.857664
v -0.015145 0.016141 0.064866
vn 0.057228 0.133469 0.989399
v 0.014031 0.016196 0.065000
vn -0.057228 0.133469 0.989399
v -0.014031 0.016196 0.065000
vn 0.512667 0.705625 0.489148
v 0.015360 0.016437 0.064500
vn -0.512667 0.705625 0.489147
v -0.015360 0.016437 0.064500
vn 0.011950 0.136882 0.990515
v 0.012500 0.016500 0.065000
vn -0.011950 0.136882 0.990515
v -0.012500 0.016500 0.065000
vn 0.392699 0.540505 0.744071
v 0.015439 0.016545 0.005000
vn 0.582883 0.802271 0.128875
v 0.015439 0.016545 0.064000
vn -0.392699 0.540505 0.744071
v -0.015439 0.016545 0.005000
vn -0.582883 0.802271 0.128875
v -0.015439 0.016545 0.064000
vn 0.156298 0.492199 0.856336
v 0.013891 0.016780 0.064866
vn -0.156297 0.492199 0.856336
v -0.013891 0.016780 0.064866
vn 0.040720 0.508980 0.859815
v 0.012500 0.017000 0.064866
vn -0.040720 0.508980 0.859815
v -0.012500 0.017000 0.064866
vn 0.269525 0.829513 0.489146
v 0.014004 0.017128 0.064500
vn -0.269525 0.829513 0.489146
v -0.014004 0.017128 0.064500
vn 0.206454 0.635402 0.744071
v 0.014045 0.017255 0.005000
vn 0.306440 0.943126 0.128873
v 0.014045 0.017255 0.064000
vn -0.206455 0.635402 0.744071
v -0.014045 0.017255 0.005000
vn -0.306440 0.943126 0.128873
v -0.014045 0.017255 0.064000
vn 0.067825 0.867079 0.493531
v 0.012500 0.017366 0.064500
vn -0.067825 0.867079 0.493531
v -0.012500 0.017366 0.064500
vn 0.054022 0.686415 0.725200
v 0.012500 0.017500 0.005000
vn 0.077320 0.988584 0.129322
v 0.012500 0.017500 0.064000
vn -0.054022 0.686415 0.725200
v -0.012500 0.017500 0.005000
vn -0.077320 0.988584 0.129322
v -0.012500 0.017500 0.064000
vn 0.577350 0.577350 -0.577350
v 0.050000 0.050000 0.000000
vn 0.577347 0.577348 0.577356
v 0.050000 0.050000 0.005000
vn -0.577350 0.577350 -0.577350
v -0.050000 0.050000 0.000000
vn -0.577348 0.577347 0.577356
v -0.050000 0.050000 0.005000
# 132 vertices, 0 vertices normals


usemtl material_0
vt -0.000000 0.739391
vt 0.052360 0.739391
vt -0.000000 0.887269
f 80/1/80 78/2/78 90/3/90
vt 0.052360 0.887269
f 90/3/90 78/2/78 84/4/84
vt -0.000000 1.035147
f 90/3/90 84/4/84 100/5/100
vt 0.052360 1.035147
f 100/5/100 84/4/84 96/6/96
vt -0.000000 1.183025
f 100/5/100 96/6/96 112/7/112
vt 0.052360 1.183025
f 112/7/112 96/6/96 106/8/106
vt -0.000000 1.330903
f 112/7/112 106/8/106 122/9/122
vt 0.052360 1.330903
f 122/9/122 106/8/106 118/10/118
vt -0.000000 1.478781
f 122/9/122 118/10/118 128/11/128
vt 0.052360 1.478781
f 128/11/128 118/10/118 124/12/124
vt 0.104720 1.330903
f 124/12/124 118/10/118 114/13/114
vt 0.104720 1.478781
f 124/12/124 114/13/114 116/14/116
vt 0.157080 1.478781
f 116/14/116 114/13/114 108/15/108
vt 0.157080 1.293934
f 108/15/108 114/13/114 104/16/104
vt 0.104720 1.183025
f 104/16/104 114/13/114 102/17/102
vt 0.157080 1.109086
f 104/16/104 102/17/102 94/18/94
vt 0.104720 1.035147
f 94/18/94 102/17/102 92/19/92
vt 0.157080 0.924238
f 94/18/94 92/19/92 86/20/86
vt 0.104720 0.887269
f 86/20/86 92/19/92 82/21/82
vt 0.157080 0.739391
f 86/20/86 82/21/82 76/22/76
vt 0.104720 0.739391
f 76/22/76 82/21/82 77/23/77
f 77/23/77 82/21/82 84/4/84
f 77/23/77 84/4/84 78/2/78
f 96/6/96 84/4/84 82/21/82
f 106/8/106 96/6/96 92/19/92
f 92/19/92 96/6/96 82/21/82
f 118/10/118 106/8/106 102/17/102
f 102/17/102 106/8/106 92/19/92
f 114/13/114 118/10/118 102/17/102
vt -2.125000 -0.078540
vt 0.375000 -0.078540
vt -2.125000 -0.026180
f 108/24/108 107/25/107 116/26/116
vt 0.375000 -0.026180
f 116/26/116 107/25/107 115/27/115
vt -2.125000 0.026180
f 116/26/116 115/27/115 124/28/124
vt 0.375000 0.026180
f 124/28/124 115/27/115 123/29/123
vt -2.125000 0.078540
f 124/28/124 123/29/123 128/30/128
vt 0.375000 0.078540
f 128/30/128 123/29/123 126/31/126
vt 0.157080 -0.924238
vt 0.157080 -0.739391
vt 0.104720 -0.887269
f 85/32/85 75/33/75 81/34/81
vt 0.104720 -0.739391
f 81/34/81 75/33/75 74/35/74
vt 0.052360 -0.739391
f 81/34/81 74/35/74 73/36/73
vt 0.052360 -0.887269
f 81/34/81 73/36/73 83/37/83
vt -0.000000 -0.739391
f 83/37/83 73/36/73 72/38/72
vt -0.000000 -0.887269
f 83/37/83 72/38/72 88/39/88
vt 0.052360 -1.035147
f 83/37/83 88/39/88 95/40/95
vt -0.000000 -1.035147
f 95/40/95 88/39/88 98/41/98
vt 0.052360 -1.183025
f 95/40/95 98/41/98 105/42/105
vt -0.000000 -1.183025
f 105/42/105 98/41/98 110/43/110
vt 0.052360 -1.330903
f 105/42/105 110/43/110 117/44/117
vt -0.000000 -1.330903
f 117/44/117 110/43/110 120/45/120
vt 0.052360 -1.478781
f 117/44/117 120/45/120 123/46/123
vt -0.000000 -1.478781
f 123/46/123 120/45/120 126/47/126
vt 0.104720 -1.478781
f 123/46/123 115/48/115 117/44/117
vt 0.104720 -1.330903
f 117/44/117 115/48/115 113/49/113
f 117/44/117 113/49/113 105/42/105
vt 0.104720 -1.183025
f 105/42/105 113/49/113 101/50/101
f 105/42/105 101/50/101 95/40/95
vt 0.104720 -1.035147
f 95/40/95 101/50/101 91/51/91
f 95/40/95 91/51/91 83/37/83
f 83/37/83 91/51/91 81/34/81
vt 0.157080 -1.478781
f 115/48/115 107/52/107 113/49/113
vt 0.157080 -1.293934
f 113/49/113 107/52/107 103/53/103
f 113/49/113 103/53/103 101/50/101
vt 0.157080 -1.109086
f 101/50/101 103/53/103 93/54/93
f 101/50/101 93/54/93 91/51/91
f 91/51/91 93/54/93 85/32/85
f 91/51/91 85/32/85 81/34/81
f 75/24/75 65/25/65 74/26/74
f 74/26/74 65/25/65 64/27/64
f 74/26/74 64/27/64 73/28/73
f 73/28/73 64/27/64 63/29/63
f 73/28/73 63/29/63 72/30/72
f 72/30/72 63/29/63 62/31/62
vt 0.157080 -0.184848
vt 0.157080 0.000000
vt 0.104720 -0.147878
f 37/55/37 33/56/33 27/57/27
vt 0.104720 0.000000
f 27/57/27 33/56/33 25/58/25
vt 0.052360 0.000000
f 27/57/27 25/58/25 17/59/17
vt 0.052360 -0.147878
f 27/57/27 17/59/17 23/60/23
vt -0.000000 0.000000
f 23/60/23 17/59/17 10/61/10
vt -0.000000 -0.147878
f 23/60/23 10/61/10 20/62/20
vt 0.052360 -0.295756
f 23/60/23 20/62/20 35/63/35
vt -0.000000 -0.295756
f 35/63/35 20/62/20 30/64/30
vt 0.052360 -0.443634
f 35/63/35 30/64/30 45/65/45
vt -0.000000 -0.443634
f 45/65/45 30/64/30 42/66/42
vt 0.052360 -0.591513
f 45/65/45 42/66/42 57/67/57
vt -0.000000 -0.591513
f 57/67/57 42/66/42 52/68/52
f 57/67/57 52/68/52 63/36/63
f 63/36/63 52/68/52 62/38/62
f 63/36/63 64/35/64 57/67/57
vt 0.104720 -0.591513
f 57/67/57 64/35/64 59/69/59
f 57/67/57 59/69/59 45/65/45
vt 0.104720 -0.443634
f 45/65/45 59/69/59 49/70/49
f 45/65/45 49/70/49 35/63/35
vt 0.104720 -0.295756
f 35/63/35 49/70/49 39/71/39
f 35/63/35 39/71/39 23/60/23
f 23/60/23 39/71/39 27/57/27
f 64/35/64 65/33/65 59/69/59
vt 0.157080 -0.554543
f 59/69/59 65/33/65 55/72/55
f 59/69/59 55/72/55 49/70/49
vt 0.157080 -0.369695
f 49/70/49 55/72/55 47/73/47
f 49/70/49 47/73/47 39/71/39
f 39/71/39 47/73/47 37/55/37
f 39/71/39 37/55/37 27/57/27
f 33/24/33 34/25/34 25/26/25
f 25/26/25 34/25/34 26/27/26
f 25/26/25 26/27/26 17/28/17
f 17/28/17 26/27/26 18/29/18
f 17/28/17 18/29/18 10/30/10
f 10/30/10 18/29/18 16/31/16
vt 0.157080 0.554543
vt 0.104720 0.591513
f 56/74/56 66/22/66 60/75/60
f 60/75/60 66/22/66 67/23/67
f 60/75/60 67/23/67 68/2/68
vt 0.052360 0.591513
f 60/75/60 68/2/68 58/76/58
f 58/76/58 68/2/68 70/1/70
vt -0.000000 0.591513
f 58/76/58 70/1/70 54/77/54
vt 0.052360 0.443634
f 58/76/58 54/77/54 46/78/46
vt -0.000000 0.443634
f 46/78/46 54/77/54 44/79/44
vt 0.052360 0.295756
f 46/78/46 44/79/44 36/80/36
vt -0.000000 0.295756
f 36/80/36 44/79/44 32/81/32
vt 0.052360 0.147878
f 36/80/36 32/81/32 24/82/24
vt -0.000000 0.147878
f 24/82/24 32/81/32 22/83/22
f 24/82/24 22/83/22 18/59/18
f 18/59/18 22/83/22 16/61/16
f 18/59/18 26/58/26 24/82/24
vt 0.104720 0.147878
f 24/82/24 26/58/26 28/84/28
f 24/82/24 28/84/28 36/80/36
vt 0.104720 0.295756
f 36/80/36 28/84/28 40/85/40
f 36/80/36 40/85/40 46/78/46
vt 0.104720 0.443634
f 46/78/46 40/85/40 50/86/50
f 46/78/46 50/86/50 58/76/58
f 58/76/58 50/86/50 60/75/60
f 26/58/26 34/56/34 28/84/28
vt 0.157080 0.184848
f 28/84/28 34/56/34 38/87/38
f 28/84/28 38/87/38 40/85/40
vt 0.157080 0.369695
f 40/85/40 38/87/38 48/88/48
f 40/85/40 48/88/48 50/86/50
f 50/86/50 48/88/48 56/74/56
f 50/86/50 56/74/56 60/75/60
f 80/31/80 70/30/70 78/29/78
f 78/29/78 70/30/70 68/28/68
f 78/29/78 68/28/68 77/27/77
f 77/27/77 68/28/68 67/26/67
f 77/27/77 67/26/67 76/25/76
f 76/25/76 67/26/67 66/24/66
vt 1.500000 5.791558
vt 0.500000 5.900000
vt 1.500000 5.291558
f 14/89/14 16/90/16 13/91/13
vt 0.500000 0.000000
f 13/91/13 16/90/16 15/92/15
vt 3.000000 0.000000
f 13/91/13 15/92/15 9/93/9
vt 2.000000 5.791558
f 14/89/14 12/94/12 16/90/16
vt 3.000000 5.900000
f 16/90/16 12/94/12 10/95/10
vt 2.000000 5.291558
f 10/95/10 12/94/12 11/96/11
f 10/95/10 11/96/11 9/93/9
f 9/93/9 11/96/11 13/91/13
vt -0.000000 0.392699
vt -5.900000 0.392699
vt -0.000000 0.235619
f 15/97/15 16/98/16 21/99/21
vt -5.900000 0.235619
f 21/99/21 16/98/16 22/100/22
vt -0.000000 0.078540
f 21/99/21 22/100/22 31/101/31
vt -5.900000 0.078540
f 31/101/31 22/100/22 32/102/32
vt -0.000000 -0.078540
f 31/101/31 32/102/32 43/103/43
vt -5.900000 -0.078540
f 43/103/43 32/102/32 44/104/44
vt -0.000000 -0.235619
f 43/103/43 44/104/44 53/105/53
vt -5.900000 -0.235619
f 53/105/53 44/104/44 54/106/54
vt -0.000000 -0.392699
f 53/105/53 54/106/54 69/107/69
vt -5.900000 -0.392699
f 69/107/69 54/106/54 70/108/70
f 70/95/70 80/90/80 69/93/69
f 69/93/69 80/90/80 79/92/79
f 79/97/79 80/98/80 89/99/89
f 89/99/89 80/98/80 90/100/90
f 89/99/89 90/100/90 99/101/99
f 99/101/99 90/100/90 100/102/100
f 99/101/99 100/102/100 111/103/111
f 111/103/111 100/102/100 112/104/112
f 111/103/111 112/104/112 121/105/121
f 121/105/121 112/104/112 122/106/122
f 121/105/121 122/106/122 127/107/127
f 127/107/127 122/106/122 128/108/128
vt 1.619552 1.403073
vt 1.250000 1.650000
vt 1.650000 1.250000
f 104/109/104 76/110/76 108/111/108
vt -1.250000 1.650000
f 108/111/108 76/110/76 66/112/66
vt 1.650000 -1.250000
f 108/111/108 66/112/66 107/113/107
vt -1.650000 1.250000
f 107/113/107 66/112/66 34/114/34
vt 1.250000 -1.650000
f 107/113/107 34/114/34 75/115/75
vt -1.650000 -1.250000
f 75/115/75 34/114/34 33/116/33
vt -1.250000 -1.650000
f 75/115/75 33/116/33 65/117/65
vt -1.403073 -1.619552
f 65/117/65 33/116/33 55/118/55
vt -1.532843 -1.532843
f 55/118/55 33/116/33 47/119/47
vt -1.619552 -1.403073
f 47/119/47 33/116/33 37/120/37
vt 1.532843 1.532843
f 104/109/104 94/121/94 76/110/76
vt 1.403073 1.619552
f 76/110/76 94/121/94 86/122/86
vt -1.403073 1.619552
vt -1.532843 1.532843
f 56/123/56 48/124/48 66/112/66
vt -1.619552 1.403073
f 66/112/66 48/124/48 38/125/38
f 66/112/66 38/125/38 34/114/34
vt 1.403073 -1.619552
f 75/115/75 85/126/85 107/113/107
vt 1.532843 -1.532843
f 107/113/107 85/126/85 93/127/93
vt 1.619552 -1.403073
f 107/113/107 93/127/93 103/128/103
f 61/97/61 62/98/62 51/99/51
f 51/99/51 62/98/62 52/100/52
f 51/99/51 52/100/52 41/101/41
f 41/101/41 52/100/52 42/102/42
f 41/101/41 42/102/42 29/103/29
f 29/103/29 42/102/42 30/104/30
f 29/103/29 30/104/30 19/105/19
f 19/105/19 30/104/30 20/106/20
f 19/105/19 20/106/20 9/107/9
f 9/107/9 20/106/20 10/108/10
f 125/97/125 126/98/126 119/99/119
f 119/99/119 126/98/126 120/100/120
f 119/99/119 120/100/120 109/101/109
f 109/101/109 120/100/120 110/102/110
f 109/101/109 110/102/110 97/103/97
f 97/103/97 110/102/110 98/104/98
f 97/103/97 98/104/98 87/105/87
f 87/105/87 98/104/98 88/106/88
f 87/105/87 88/106/88 71/107/71
f 71/107/71 88/106/88 72/108/72
f 72/95/72 62/90/62 71/93/71
f 71/93/71 62/90/62 61/92/61
f 128/95/128 126/90/126 127/93/127
f 127/93/127 126/90/126 125/92/125
vt 10.000000 0.000000
vt 0.000000 0.500000
f 1/61/1 129/129/129 2/130/2
vt 10.000000 0.500000
f 2/130/2 129/129/129 130/131/130
f 7/61/7 1/129/1 8/130/8
f 8/130/8 1/129/1 2/131/2
f 131/61/131 7/129/7 132/130/132
f 132/130/132 7/129/7 8/131/8
f 129/61/129 131/129/131 130/130/130
f 130/130/130 131/129/131 132/131/132
vt 1.404508 -1.725528
vt 1.250000 -1.750000
vt 5.000000 -5.000000
f 87/132/87 71/133/71 130/134/130
vt -1.250000 -1.750000
f 130/134/130 71/133/71 61/135/61
vt -5.000000 -5.000000
f 130/134/130 61/135/61 2/136/2
vt -1.404508 -1.725528
f 2/136/2 61/135/61 51/137/51
vt -1.543893 -1.654508
f 2/136/2 51/137/51 41/138/41
vt -1.654508 -1.543893
f 41/138/41 29/139/29 2/136/2
vt -1.725528 -1.404508
f 2/136/2 29/139/29 19/140/19
vt -1.750000 -1.250000
f 2/136/2 19/140/19 9/141/9
vt -1.750000 1.250000
f 9/141/9 15/142/15 2/136/2
vt -5.000000 5.000000
f 2/136/2 15/142/15 8/143/8
vt -1.725528 1.404508
f 8/143/8 15/142/15 21/144/21
vt -1.654508 1.543893
f 8/143/8 21/144/21 31/145/31
vt -1.543893 1.654508
f 31/145/31 43/146/43 8/143/8
vt -1.404508 1.725528
f 8/143/8 43/146/43 53/147/53
vt -1.250000 1.750000
f 8/143/8 53/147/53 69/148/69
vt 1.250000 1.750000
f 69/148/69 79/149/79 8/143/8
vt 5.000000 5.000000
f 8/143/8 79/149/79 132/150/132
vt 1.404508 1.725528
f 132/150/132 79/149/79 89/151/89
vt 1.543893 1.654508
f 132/150/132 89/151/89 99/152/99
vt 1.654508 1.543893
f 99/152/99 111/153/111 132/150/132
vt 1.725528 1.404508
f 132/150/132 111/153/111 121/154/121
vt 1.750000 1.250000
f 132/150/132 121/154/121 127/155/127
f 132/150/132 127/155/127 130/134/130
vt 1.750000 -1.250000
f 130/134/130 127/155/127 125/156/125
vt 1.725528 -1.404508
f 130/134/130 125/156/125 119/157/119
vt 1.654508 -1.543893
f 119/157/119 109/158/109 130/134/130
vt 1.543893 -1.654508
f 130/134/130 109/158/109 97/159/97
f 130/134/130 97/159/97 87/132/87
f 129/136/129 1/134/1 131/143/131
f 131/143/131 1/134/1 7/150/7
vt 0.500000 3.250000
vt 0.000000 3.250000
f 4/160/4 3/161/3 12/92/12
f 12/92/12 3/161/3 11/61/11
f 3/160/3 5/161/5 11/92/11
f 11/92/11 5/161/5 13/61/13
f 6/160/6 4/161/4 14/92/14
f 14/92/14 4/161/4 12/61/12
f 5/160/5 6/161/6 13/92/13
f 13/92/13 6/161/6 14/61/14
vt -0.250000 -0.250000
vt 0.250000 -0.250000
vt -0.250000 0.250000
f 3/162/3 4/163/4 5/164/5
vt 0.250000 0.250000
f 5/164/5 4/163/4 6/165/6
# 260 faces, 165 coords texture

# End of File
